<svg xmlns="http://www.w3.org/2000/svg" viewBox="0 0 70 72">
    <g fill="currentColor" fill-rule="nonzero">
        <path d="M61.9 36.23l-5.5 18.31a2.002 2.002 0 0 1-1.901 1.394h-32a2.004 2.004 0 0 1-1.926-1.48l-8.162-29.622-10.74-1.812a2.021 2.021 0 0 1-1.643-2.329 2.003 2.003 0 0 1 2.301-1.663l12 2.024c.766.129 1.389.695 1.597 1.453l8.109 29.441H53l5.09-16.466c.025-.079.055-.153.088-.223a1.925 1.925 0 0 1 1.899-1.622 1.926 1.926 0 0 1 1.868 2.388 1.06 1.06 0 0 1-.045.207zM26.5 59a6.5 6.5 0 1 0 0 13 6.5 6.5 0 0 0 0-13zm23 0a6.5 6.5 0 1 0 0 13 6.5 6.5 0 0 0 0-13zm-23 4a2.5 2.5 0 1 1 0 5 2.5 2.5 0 0 1 0-5zM47 65.5a2.5 2.5 0 1 1 5 0 2.5 2.5 0 0 1-5 0z"/>
        <path d="M19.882 29.873a1.018 1.018 0 0 0 .012 1.427l18.707 18.707a1.018 1.018 0 0 0 1.427.012l28.991-28.991a1.018 1.018 0 0 0-.012-1.427L50.3.894a1.018 1.018 0 0 0-1.427-.012l-28.991 28.99zm.918.52L49.394 1.8l-1.83 26.765L20.8 30.394zm.577.975l17.22-1.165.16 18.546-17.38-17.38zM50.368 2.377l17.38 17.38-18.545-.16 1.165-17.22zM39.621 30.123l8.465-.573a.494.494 0 0 0 .464-.464l.573-8.465 18.702.162-28.042 28.042-.162-18.702z"/>
    </g>
</svg>