<?xml version="1.0" encoding="UTF-8"?>
<svg xmlns="http://www.w3.org/2000/svg" xmlns:xlink="http://www.w3.org/1999/xlink" width="89pt" height="23pt" viewBox="0 0 89 23" version="1.1">
<defs>
<linearGradient id="linear0" gradientUnits="userSpaceOnUse" x1="0.19318" y1="3.91863" x2="0.49786" y2="0.20269" gradientTransform="matrix(88.760144,0,0,9.008197,0,6.772313)">
<stop offset="0.0803" style="stop-color:rgb(62.745098%,61.960784%,60.392157%);stop-opacity:1;"/>
<stop offset="0.4315" style="stop-color:rgb(76.862745%,76.862745%,77.254902%);stop-opacity:1;"/>
<stop offset="1" style="stop-color:rgb(44.313725%,43.529412%,38.823529%);stop-opacity:1;"/>
</linearGradient>
</defs>
<g id="surface1">
<path style=" stroke:none;fill-rule:nonzero;fill:url(#linear0);" d="M 84.050781 15.78125 L 0 15.78125 L 0 6.773438 L 88.761719 6.773438 Z M 84.050781 15.78125 "/>
<path style=" stroke:none;fill-rule:nonzero;fill:rgb(100%,100%,100%);fill-opacity:1;" d="M 15.792969 8.789062 L 17.957031 8.789062 C 18.429688 8.789062 18.828125 8.839844 19.242188 9.117188 C 19.566406 9.332031 19.785156 9.726562 19.695312 10.226562 C 19.582031 10.882812 18.804688 11.617188 17.585938 11.617188 L 16.207031 11.617188 L 15.894531 13.429688 L 14.988281 13.429688 Z M 16.324219 10.953125 L 17.664062 10.953125 C 18.335938 10.953125 18.726562 10.570312 18.789062 10.207031 C 18.847656 9.894531 18.71875 9.703125 18.519531 9.585938 C 18.332031 9.480469 18.152344 9.457031 17.890625 9.457031 L 16.585938 9.457031 Z M 26.304688 12.300781 C 26.710938 12.582031 27.28125 12.765625 27.921875 12.765625 C 28.65625 12.765625 29.148438 12.503906 29.21875 12.117188 C 29.269531 11.796875 29.074219 11.546875 28.542969 11.492188 C 28.277344 11.46875 28.074219 11.441406 27.769531 11.410156 C 26.757812 11.296875 26.292969 10.777344 26.410156 10.105469 C 26.550781 9.3125 27.359375 8.753906 28.59375 8.753906 C 29.242188 8.75 29.878906 8.917969 30.445312 9.234375 L 29.839844 9.816406 C 29.40625 9.578125 28.921875 9.457031 28.425781 9.453125 C 27.875 9.453125 27.390625 9.679688 27.3125 10.121094 C 27.265625 10.378906 27.464844 10.640625 28.058594 10.714844 C 28.214844 10.734375 28.4375 10.757812 28.71875 10.785156 C 29.8125 10.886719 30.230469 11.484375 30.121094 12.117188 C 29.972656 12.972656 29.074219 13.464844 27.789062 13.464844 C 26.910156 13.464844 26.171875 13.257812 25.621094 12.828125 Z M 32.859375 9.417969 L 31.226562 9.417969 L 31.328125 8.789062 L 35.511719 8.789062 L 35.398438 9.417969 L 33.761719 9.417969 L 33.0625 13.429688 L 32.160156 13.429688 Z M 25.121094 9.585938 C 24.910156 9.183594 24.335938 8.753906 23.394531 8.753906 L 22.988281 8.753906 C 22.046875 8.753906 21.332031 9.183594 20.972656 9.585938 C 20.734375 9.859375 20.648438 9.996094 20.449219 11.113281 C 20.257812 12.222656 20.300781 12.359375 20.445312 12.632812 C 20.660156 13.039062 21.230469 13.464844 22.167969 13.464844 L 22.578125 13.464844 C 23.515625 13.464844 24.234375 13.039062 24.59375 12.632812 C 24.835938 12.359375 24.925781 12.222656 25.117188 11.113281 C 25.308594 10 25.265625 9.859375 25.121094 9.585938 M 23.683594 12.425781 C 23.464844 12.609375 23.125 12.765625 22.699219 12.765625 L 22.292969 12.765625 C 21.863281 12.765625 21.582031 12.609375 21.429688 12.425781 C 21.234375 12.195312 21.191406 12.0625 21.355469 11.113281 C 21.519531 10.160156 21.609375 10.027344 21.886719 9.792969 C 22.101562 9.613281 22.4375 9.457031 22.867188 9.457031 L 23.273438 9.457031 C 23.703125 9.457031 23.984375 9.613281 24.136719 9.792969 C 24.332031 10.027344 24.378906 10.160156 24.210938 11.113281 C 24.046875 12.0625 23.957031 12.195312 23.683594 12.425781 M 37.367188 9.828125 C 37.582031 9.648438 37.917969 9.492188 38.347656 9.492188 L 40.511719 9.492188 L 40.636719 8.785156 L 38.46875 8.785156 C 37.53125 8.785156 36.808594 9.214844 36.453125 9.625 C 36.210938 9.894531 36.128906 9.992188 35.933594 11.109375 C 35.738281 12.222656 35.789062 12.320312 35.933594 12.589844 C 36.152344 12.996094 36.722656 13.429688 37.664062 13.429688 L 39.828125 13.429688 L 39.949219 12.722656 L 37.785156 12.722656 C 37.355469 12.722656 37.074219 12.566406 36.917969 12.382812 C 36.75 12.175781 36.6875 12.082031 36.789062 11.402344 L 39.761719 11.402344 L 39.863281 10.773438 L 36.902344 10.773438 C 37.03125 10.132812 37.125 10.035156 37.367188 9.828125 M 12.097656 9.585938 C 11.882812 9.183594 11.3125 8.753906 10.367188 8.753906 L 10.320312 8.753906 C 9.382812 8.753906 8.660156 9.183594 8.304688 9.585938 C 8.066406 9.859375 7.976562 9.996094 7.78125 11.113281 L 7.378906 13.429688 L 8.28125 13.429688 L 8.605469 11.574219 L 11.105469 11.574219 L 10.785156 13.429688 L 11.691406 13.429688 L 12.089844 11.113281 C 12.285156 10 12.246094 9.859375 12.097656 9.585938 M 9.21875 9.792969 C 9.433594 9.613281 9.773438 9.457031 10.199219 9.457031 L 10.246094 9.457031 C 10.675781 9.457031 10.960938 9.613281 11.113281 9.792969 C 11.296875 10.015625 11.347656 10.144531 11.214844 10.949219 L 8.714844 10.949219 C 8.863281 10.144531 8.957031 10.015625 9.21875 9.792969 M 3.003906 12.425781 C 3.085938 11.957031 3.636719 8.785156 3.636719 8.785156 L 4.542969 8.785156 C 4.542969 8.785156 4.019531 11.824219 3.941406 12.210938 C 3.84375 12.699219 3.96875 12.722656 4.335938 12.722656 L 6.765625 12.722656 L 6.648438 13.429688 L 3.683594 13.429688 C 2.925781 13.429688 2.929688 12.820312 3.003906 12.425781 "/>
<path style=" stroke:none;fill-rule:nonzero;fill:rgb(100%,86.666667%,0%);fill-opacity:1;" d="M 75.125 6.316406 C 77.019531 11.84375 72.167969 18.566406 64.289062 21.34375 C 56.414062 24.121094 48.492188 21.894531 46.601562 16.371094 C 44.710938 10.847656 49.5625 4.117188 57.4375 1.339844 C 65.3125 -1.433594 73.234375 0.792969 75.125 6.316406 Z M 75.125 6.316406 "/>
<path style=" stroke:none;fill-rule:nonzero;fill:rgb(1.960784%,24.705882%,56.078431%);fill-opacity:1;" d="M 49.132812 15.570312 C 58.601562 13.140625 64.886719 11.332031 73.308594 9.714844 C 73.566406 9.679688 73.722656 9.566406 73.304688 9.5625 L 58.714844 9.828125 C 58.769531 10.429688 58.140625 11.296875 56.816406 12.125 C 56.140625 12.554688 54.589844 13.382812 49.117188 15.472656 C 49.046875 15.503906 49.078125 15.578125 49.132812 15.570312 M 64.53125 12.238281 L 62.875 14.398438 C 62.640625 14.714844 62.199219 15.210938 61.578125 15.234375 L 51.449219 15.566406 C 51.382812 15.566406 51.402344 15.523438 51.429688 15.515625 L 64.5 12.171875 C 64.574219 12.148438 64.574219 12.195312 64.53125 12.238281 M 66.800781 6.75 C 68.097656 6.769531 68.058594 7.597656 67.457031 8.417969 C 67.207031 8.761719 67.117188 8.878906 66.878906 9.175781 L 58.492188 9.269531 C 57.34375 8.226562 55.148438 7.375 53.824219 6.894531 C 53.574219 6.792969 53.71875 6.792969 53.921875 6.796875 C 55.195312 6.789062 66.113281 6.742188 66.800781 6.75 "/>
<path style=" stroke:none;fill-rule:nonzero;fill:rgb(100%,100%,100%);fill-opacity:1;" d="M 69.054688 1.757812 L 68.921875 1.90625 C 67.503906 1.667969 65.953125 1.601562 63.910156 1.707031 L 64.375 1.039062 C 65.652344 0.921875 68.21875 1.425781 69.054688 1.757812 M 69.125 1.660156 L 69.289062 1.464844 C 68.828125 1.207031 67.792969 1.0625 67.117188 1.070312 C 67.902344 1.195312 68.773438 1.445312 69.125 1.660156 M 52.636719 19.738281 C 52.558594 19.882812 52.148438 19.808594 51.722656 19.574219 C 51.296875 19.339844 51.011719 19.035156 51.089844 18.890625 C 51.164062 18.75 51.574219 18.824219 52 19.058594 C 52.429688 19.289062 52.707031 19.59375 52.636719 19.738281 M 53.5 4.316406 L 53.5 5.003906 C 54.582031 4.265625 55.59375 3.671875 56.148438 3.429688 C 56.15625 3.242188 56.183594 2.929688 56.226562 2.621094 C 55.277344 3.117188 54.367188 3.6875 53.5 4.316406 Z M 51.046875 6.582031 L 51.777344 5.96875 L 51.796875 5.988281 L 51.019531 6.804688 L 51.003906 6.933594 C 51.628906 6.382812 52.28125 5.859375 52.964844 5.378906 L 52.964844 4.714844 C 52.300781 5.226562 51.671875 5.777344 51.074219 6.363281 Z M 49.589844 8.484375 C 49.605469 8.460938 49.621094 8.433594 49.640625 8.410156 L 49.804688 7.792969 C 49.65625 7.984375 49.519531 8.175781 49.390625 8.363281 C 49.582031 8.4375 49.460938 8.398438 49.589844 8.484375 Z M 49.90625 8.054688 C 50.070312 7.855469 50.261719 7.644531 50.472656 7.433594 L 50.539062 6.925781 C 50.371094 7.105469 50.210938 7.289062 50.0625 7.46875 L 49.90625 8.058594 Z M 49.90625 8.054688 "/>
</g>
</svg>
