<svg width="209" height="34" viewBox="0 0 209 34" xmlns="http://www.w3.org/2000/svg"><g transform="translate(0 1)" fill="none" fill-rule="evenodd"><path d="M28.019 13.1a.46.46 0 0 0-.284-.867l-10.547 2.325-3.045-3.523a1.058 1.058 0 0 1 .792-1.753l20.662-.465a.888.888 0 0 1 .746 1.379l-9.145 13.83a1.093 1.093 0 0 1-1.746.105l-3.703-4.29-4.39 1.191a.856.856 0 0 1-.976-1.236l1.147-2.158L28.02 13.1z" fill="#1E88E5" fill-rule="nonzero"/><path d="M6.5 12.2h6.718M0 20.2h13.218" stroke="#FBC02D" stroke-width="1.4" stroke-linecap="round"/><path d="M3.5 16.399h9.718" stroke="#424242" stroke-linecap="round"/><g transform="translate(42 5)" fill="#424242"><path d="M.775 19.125c-.233 0-.42-.067-.563-.2C.072 18.792 0 18.6 0 18.35V2.025c0-.25.07-.442.212-.575.142-.133.33-.2.563-.2.217 0 .396.067.537.2.142.133.213.325.213.575V18.35c0 .25-.07.442-.212.575a.753.753 0 0 1-.538.2zM14.85 16.4c.15 0 .28.062.388.188.108.125.162.27.162.437 0 .367-.283.725-.85 1.075-1.2.717-2.467 1.075-3.8 1.075-1.85 0-3.308-.558-4.375-1.675-1.067-1.117-1.6-2.65-1.6-4.6 0-1.25.237-2.354.712-3.313.476-.958 1.142-1.7 2-2.224.859-.526 1.846-.788 2.963-.788 1.567 0 2.804.504 3.713 1.513.908 1.008 1.362 2.395 1.362 4.162 0 .3-.067.52-.2.662-.133.142-.35.213-.65.213H6.35c.05 1.533.45 2.7 1.2 3.5.75.8 1.808 1.2 3.175 1.2.717 0 1.317-.096 1.8-.287.483-.192 1-.446 1.55-.763.367-.25.625-.375.775-.375zm-4.4-8.575c-1.167 0-2.1.367-2.8 1.1-.7.733-1.117 1.758-1.25 3.075h7.725c-.033-1.333-.367-2.362-1-3.088-.633-.725-1.525-1.087-2.675-1.087zm13.5 10.025c.467.05.7.267.7.65a.57.57 0 0 1-.225.475c-.15.117-.392.167-.725.15l-.7-.05c-1.267-.083-2.204-.47-2.813-1.162-.608-.692-.912-1.746-.912-3.163V8.1h-1.9c-.2 0-.358-.054-.475-.162a.568.568 0 0 1-.175-.438.61.61 0 0 1 .175-.45c.117-.117.275-.175.475-.175h1.9v-3.1c0-.25.067-.442.2-.575.133-.133.317-.2.55-.2.233 0 .42.067.563.2.141.133.212.325.212.575v3.1h3.025c.217 0 .383.058.5.175a.61.61 0 0 1 .175.45c0 .183-.058.33-.175.438-.117.108-.283.162-.5.162H20.8v6.725c0 1.033.2 1.77.6 2.213.4.441 1.025.695 1.875.762l.675.05zm8.375 0c.467.05.7.267.7.65a.57.57 0 0 1-.225.475c-.15.117-.392.167-.725.15l-.7-.05c-1.267-.083-2.204-.47-2.813-1.162-.608-.692-.912-1.746-.912-3.163V8.1h-1.9c-.2 0-.358-.054-.475-.162A.568.568 0 0 1 25.1 7.5a.61.61 0 0 1 .175-.45c.117-.117.275-.175.475-.175h1.9v-3.1c0-.25.067-.442.2-.575.133-.133.317-.2.55-.2.233 0 .42.067.563.2.141.133.212.325.212.575v3.1H32.2c.217 0 .383.058.5.175a.61.61 0 0 1 .175.45c0 .183-.058.33-.175.438-.117.108-.283.162-.5.162h-3.025v6.725c0 1.033.2 1.77.6 2.213.4.441 1.025.695 1.875.762l.675.05zm8.55-11.225c.317-.017.542.025.675.125s.2.267.2.5c0 .417-.25.65-.75.7l-.75.075c-1.183.117-2.062.542-2.638 1.275-.575.733-.862 1.592-.862 2.575v6.475c0 .25-.067.442-.2.575-.133.133-.317.2-.55.2-.233 0-.42-.067-.563-.2-.141-.133-.212-.325-.212-.575V7.4c0-.25.07-.442.212-.575.142-.133.33-.2.563-.2a.71.71 0 0 1 .525.2c.133.133.2.317.2.55V9c.683-1.433 1.95-2.217 3.8-2.35l.35-.025zM52.75 16.4c.15 0 .28.062.388.188.108.125.162.27.162.437 0 .367-.283.725-.85 1.075-1.2.717-2.467 1.075-3.8 1.075-1.85 0-3.308-.558-4.375-1.675-1.067-1.117-1.6-2.65-1.6-4.6 0-1.25.237-2.354.713-3.313.475-.958 1.141-1.7 2-2.224.858-.526 1.845-.788 2.962-.788 1.567 0 2.804.504 3.712 1.513.909 1.008 1.363 2.395 1.363 4.162 0 .3-.067.52-.2.662-.133.142-.35.213-.65.213H44.25c.05 1.533.45 2.7 1.2 3.5.75.8 1.808 1.2 3.175 1.2.717 0 1.317-.096 1.8-.287.483-.192 1-.446 1.55-.763.367-.25.625-.375.775-.375zm-4.4-8.575c-1.167 0-2.1.367-2.8 1.1-.7.733-1.117 1.758-1.25 3.075h7.725c-.033-1.333-.367-2.362-1-3.088-.633-.725-1.525-1.087-2.675-1.087zM63.45 6.525c.433-.033.775.058 1.025.275.25.217.375.542.375.975 0 .45-.108.783-.325 1-.217.217-.608.358-1.175.425l-.75.075c-.983.1-1.704.433-2.163 1-.458.567-.687 1.275-.687 2.125v5.25c0 .483-.15.854-.45 1.113-.3.258-.675.387-1.125.387-.45 0-.82-.13-1.112-.387-.292-.259-.438-.63-.438-1.113V7.975c0-.467.146-.825.438-1.075.291-.25.654-.375 1.087-.375.433 0 .783.12 1.05.362s.4.588.4 1.038v1c.317-.733.787-1.3 1.413-1.7A4.33 4.33 0 0 1 63.1 6.55l.35-.025zm12.175 9.125c.283 0 .512.108.688.325.175.217.262.508.262.875 0 .517-.308.95-.925 1.3a8.357 8.357 0 0 1-1.925.763c-.717.191-1.4.287-2.05.287-1.967 0-3.525-.567-4.675-1.7s-1.725-2.683-1.725-4.65c0-1.25.25-2.358.75-3.325a5.454 5.454 0 0 1 2.112-2.25c.909-.533 1.938-.8 3.088-.8 1.1 0 2.058.242 2.875.725.817.483 1.45 1.167 1.9 2.05.45.883.675 1.925.675 3.125 0 .717-.317 1.075-.95 1.075H68.35c.1 1.15.425 1.996.975 2.538.55.541 1.35.812 2.4.812a4.55 4.55 0 0 0 1.413-.2c.408-.133.87-.317 1.387-.55.5-.267.867-.4 1.1-.4zM71.3 8.675c-.85 0-1.53.267-2.037.8-.509.533-.813 1.3-.913 2.3H74c-.033-1.017-.283-1.787-.75-2.313-.467-.525-1.117-.787-1.95-.787zM83.65 19.2c-1.817 0-3.283-.358-4.4-1.075-.533-.317-.8-.767-.8-1.35 0-.333.092-.604.275-.812a.865.865 0 0 1 .675-.313c.283 0 .675.133 1.175.4.533.25 1.02.442 1.462.575.442.133 1.005.2 1.688.2.7 0 1.246-.117 1.638-.35.391-.233.587-.558.587-.975 0-.283-.08-.508-.237-.675-.159-.167-.442-.32-.85-.462-.409-.142-1.03-.305-1.863-.488-1.483-.3-2.546-.725-3.188-1.275-.641-.55-.962-1.308-.962-2.275 0-.733.217-1.396.65-1.987.433-.592 1.03-1.05 1.787-1.375.759-.326 1.621-.488 2.588-.488.7 0 1.375.087 2.025.263.65.175 1.233.429 1.75.762.533.333.8.775.8 1.325 0 .333-.092.612-.275.838-.183.225-.408.337-.675.337-.183 0-.362-.037-.537-.113a7.212 7.212 0 0 1-.663-.337c-.483-.25-.9-.437-1.25-.563-.35-.125-.783-.187-1.3-.187-.617 0-1.104.125-1.463.375-.358.25-.537.592-.537 1.025 0 .417.183.733.55.95.367.217 1.075.433 2.125.65 1.117.233 1.992.5 2.625.8.633.3 1.087.675 1.362 1.125.276.45.413 1.025.413 1.725 0 1.133-.47 2.042-1.413 2.725-.941.683-2.195 1.025-3.762 1.025zm9.25-.05c-.45 0-.82-.13-1.113-.387-.291-.259-.437-.63-.437-1.113V8c0-.483.146-.85.438-1.1.291-.25.662-.375 1.112-.375.45 0 .825.125 1.125.375.3.25.45.617.45 1.1v9.65c0 .483-.15.854-.45 1.113-.3.258-.675.387-1.125.387zm0-14.85c-.567 0-1.017-.154-1.35-.462-.333-.309-.5-.713-.5-1.213 0-.5.167-.9.5-1.2.333-.3.783-.45 1.35-.45.55 0 .996.15 1.337.45.342.3.513.7.513 1.2s-.167.904-.5 1.212c-.333.309-.783.463-1.35.463zm6.35 14.85c-.45 0-.82-.13-1.112-.387-.292-.259-.438-.63-.438-1.113V2.725c0-.483.146-.85.438-1.1.291-.25.662-.375 1.112-.375.45 0 .825.125 1.125.375.3.25.45.617.45 1.1V17.65c0 .483-.15.854-.45 1.113-.3.258-.675.387-1.125.387zm6.35 0c-.45 0-.82-.13-1.112-.387-.292-.259-.438-.63-.438-1.113V8c0-.483.146-.85.438-1.1.291-.25.662-.375 1.112-.375.45 0 .825.125 1.125.375.3.25.45.617.45 1.1v9.65c0 .483-.15.854-.45 1.113-.3.258-.675.387-1.125.387zm0-14.85c-.567 0-1.017-.154-1.35-.462-.333-.309-.5-.713-.5-1.213 0-.5.167-.9.5-1.2.333-.3.783-.45 1.35-.45.55 0 .996.15 1.338.45.341.3.512.7.512 1.2s-.167.904-.5 1.212c-.333.309-.783.463-1.35.463zm10.1 2.175c1.7 0 2.962.42 3.787 1.263.826.841 1.238 2.12 1.238 3.837v6.1c0 .45-.133.804-.4 1.063-.267.258-.633.387-1.1.387-.433 0-.787-.133-1.063-.4-.275-.267-.412-.617-.412-1.05v-.55a3.262 3.262 0 0 1-1.338 1.525c-.608.367-1.312.55-2.112.55-.817 0-1.558-.167-2.225-.5a3.958 3.958 0 0 1-1.575-1.375 3.474 3.474 0 0 1-.575-1.95c0-.9.23-1.608.688-2.125.458-.517 1.204-.892 2.237-1.125 1.033-.233 2.458-.35 4.275-.35h.625V11.2c0-.817-.175-1.412-.525-1.787-.35-.376-.917-.563-1.7-.563-.483 0-.975.07-1.475.213-.5.141-1.092.345-1.775.612-.433.217-.75.325-.95.325a.94.94 0 0 1-.737-.325c-.192-.217-.288-.5-.288-.85 0-.283.07-.53.213-.737.141-.209.379-.405.712-.588.583-.317 1.28-.567 2.088-.75a10.77 10.77 0 0 1 2.387-.275zm-.775 10.475c.833 0 1.512-.28 2.038-.837.525-.559.787-1.28.787-2.163v-.525h-.45c-1.117 0-1.983.05-2.6.15-.617.1-1.058.275-1.325.525-.267.25-.4.592-.4 1.025 0 .533.187.97.563 1.313.375.341.837.512 1.387.512zm15.325-.125c.833.05 1.25.425 1.25 1.125 0 .4-.162.704-.488.913-.325.208-.787.295-1.387.262l-.675-.05c-2.8-.2-4.2-1.7-4.2-4.5v-5.45h-1.25c-.45 0-.796-.1-1.037-.3-.242-.2-.363-.492-.363-.875s.12-.675.363-.875c.241-.2.587-.3 1.037-.3h1.25v-2.3c0-.45.142-.808.425-1.075.283-.267.667-.4 1.15-.4.467 0 .842.133 1.125.4.283.267.425.625.425 1.075v2.3H130c.45 0 .796.1 1.037.3.242.2.363.492.363.875s-.12.675-.363.875c-.241.2-.587.3-1.037.3h-2.125V14.8c0 1.233.567 1.892 1.7 1.975l.675.05zm4.425 2.325c-.45 0-.82-.13-1.113-.387-.291-.259-.437-.63-.437-1.113V8c0-.483.146-.85.438-1.1.291-.25.662-.375 1.112-.375.45 0 .825.125 1.125.375.3.25.45.617.45 1.1v9.65c0 .483-.15.854-.45 1.113-.3.258-.675.387-1.125.387zm0-14.85c-.567 0-1.017-.154-1.35-.462-.333-.309-.5-.713-.5-1.213 0-.5.167-.9.5-1.2.333-.3.783-.45 1.35-.45.55 0 .996.15 1.337.45.342.3.513.7.513 1.2s-.167.904-.5 1.212c-.333.309-.783.463-1.35.463zm10.375 14.9c-1.25 0-2.346-.258-3.288-.775a5.362 5.362 0 0 1-2.187-2.225c-.517-.967-.775-2.092-.775-3.375s.258-2.404.775-3.362a5.38 5.38 0 0 1 2.188-2.213c.941-.517 2.037-.775 3.287-.775s2.346.258 3.287.775a5.302 5.302 0 0 1 2.175 2.213c.509.958.763 2.079.763 3.362s-.254 2.408-.763 3.375a5.285 5.285 0 0 1-2.174 2.225c-.942.517-2.038.775-3.288.775zm-.025-2.425c1.017 0 1.792-.333 2.325-1 .533-.667.8-1.65.8-2.95 0-1.283-.267-2.262-.8-2.938-.533-.675-1.3-1.012-2.3-1.012-1 0-1.77.337-2.313 1.012-.541.676-.812 1.655-.812 2.938 0 1.3.267 2.283.8 2.95.533.667 1.3 1 2.3 1zm15.925-10.3c1.467 0 2.558.417 3.275 1.25.717.833 1.075 2.092 1.075 3.775v6.15c0 .467-.137.833-.413 1.1-.275.267-.654.4-1.137.4s-.867-.133-1.15-.4c-.283-.267-.425-.633-.425-1.1v-5.975c0-.95-.18-1.642-.538-2.075-.358-.433-.92-.65-1.687-.65-.9 0-1.62.283-2.162.85-.542.567-.813 1.325-.813 2.275v5.575c0 .467-.142.833-.425 1.1-.283.267-.667.4-1.15.4-.483 0-.862-.133-1.138-.4-.275-.267-.412-.633-.412-1.1V7.975c0-.433.142-.783.425-1.05.283-.267.667-.4 1.15-.4.433 0 .787.13 1.063.387.275.259.412.596.412 1.013V8.6a4.228 4.228 0 0 1 1.675-1.575c.7-.367 1.492-.55 2.375-.55z"/></g></g></svg>